<svg width="17" height="17" viewBox="0 0 18 18" fill="none" xmlns="http://www.w3.org/2000/svg">
    <path d="M17.1749 15.4492C17.2885 15.5624 17.3786 15.697 17.4402 15.8451C17.5017 15.9932 17.5333 16.1521 17.5333 16.3125C17.5333 16.4729 17.5017 16.6317 17.4402 16.7799C17.3786 16.928 17.2885 17.0625 17.1749 17.1758C16.9449 17.4028 16.6347 17.53 16.3116 17.53C15.9884 17.53 15.6783 17.4028 15.4483 17.1758L8.99909 10.7265L2.54987 17.1758C2.31988 17.4028 2.00974 17.53 1.68659 17.53C1.36344 17.53 1.05329 17.4028 0.823305 17.1758C0.709685 17.0625 0.619534 16.928 0.558021 16.7799C0.496508 16.6317 0.464844 16.4729 0.464844 16.3125C0.464844 16.1521 0.496508 15.9932 0.558021 15.8451C0.619534 15.697 0.709685 15.5624 0.823305 15.4492L7.27252 8.99998L0.823305 2.55076C0.594349 2.3218 0.465722 2.01127 0.465722 1.68748C0.465722 1.52715 0.497301 1.3684 0.558655 1.22027C0.620009 1.07215 0.709937 0.937564 0.823305 0.824197C0.936673 0.710829 1.07126 0.620901 1.21938 0.559547C1.3675 0.498192 1.52626 0.466614 1.68659 0.466614C2.01038 0.466614 2.32091 0.59524 2.54987 0.824197L8.99909 7.27342L15.4483 0.824197C15.6773 0.59524 15.9878 0.466614 16.3116 0.466614C16.6354 0.466614 16.9459 0.59524 17.1749 0.824197C17.4038 1.05315 17.5324 1.36368 17.5324 1.68748C17.5324 2.01127 17.4038 2.3218 17.1749 2.55076L10.7256 8.99998L17.1749 15.4492Z"
          fill="#353232"/>
</svg>
