<svg width="50" height="50" viewBox="0 0 50 50" fill="none" xmlns="http://www.w3.org/2000/svg">
<path d="M36.459 17.7083C36.459 10.8051 31.3288 5.20825 25.0007 5.20825C18.6725 5.20825 13.5423 10.8051 13.5423 17.7083M5.20898 17.7083H44.7923L40.4173 44.7916H9.58398L5.20898 17.7083Z" stroke="#353232" stroke-width="4" stroke-linecap="round" stroke-linejoin="round"/>
<path d="M17.7083 29.1667C18.8589 29.1667 19.7917 28.2339 19.7917 27.0833C19.7917 25.9327 18.8589 25 17.7083 25C16.5577 25 15.625 25.9327 15.625 27.0833C15.625 28.2339 16.5577 29.1667 17.7083 29.1667Z" fill="#353232"/>
<path d="M18.75 34.375C18.75 34.375 20.8333 37.5 25 37.5C29.1667 37.5 31.25 34.375 31.25 34.375" stroke="#353232" stroke-width="4" stroke-linecap="round" stroke-linejoin="round"/>
<path d="M32.2923 29.1667C33.4429 29.1667 34.3757 28.2339 34.3757 27.0833C34.3757 25.9327 33.4429 25 32.2923 25C31.1417 25 30.209 25.9327 30.209 27.0833C30.209 28.2339 31.1417 29.1667 32.2923 29.1667Z" fill="#353232"/>
</svg>
